PathFileType	4	(X/Y/Z)	 s11c0102.trc
DataRate	CameraRate	NumFrames	NumMarkers	Units	OrigDataRate	OrigDataStartFrame	OrigNumFrames
200	200	6	48	mm	200	1501	2000
Frame#	Time	racr			lacr			c7			jug			rlel			rdr			llel			ldr			s2			lic			ric			lasi			rasi			rpsi			lpsi			rgt			lgt			rth1			rth2			rth3			rth4			rlfc			rmfc			rsh1			rsh2			rsh3			rsh4			rlmal			rcal			rtoe			rmt5			lth1			lth2			lth4			lth3			llfc			lmfc			llmal			lcal			lmt5			lsh1			lsh2			lsh3			lsh4			ltoe			SBIKE			LBIKE			RBIKE			
		X1	Y1	Z1	X2	Y2	Z2	X3	Y3	Z3	X4	Y4	Z4	X5	Y5	Z5	X6	Y6	Z6	X7	Y7	Z7	X8	Y8	Z8	X9	Y9	Z9	X10	Y10	Z10	X11	Y11	Z11	X12	Y12	Z12	X13	Y13	Z13	X14	Y14	Z14	X15	Y15	Z15	X16	Y16	Z16	X17	Y17	Z17	X18	Y18	Z18	X19	Y19	Z19	X20	Y20	Z20	X21	Y21	Z21	X22	Y22	Z22	X23	Y23	Z23	X24	Y24	Z24	X25	Y25	Z25	X26	Y26	Z26	X27	Y27	Z27	X28	Y28	Z28	X29	Y29	Z29	X30	Y30	Z30	X31	Y31	Z31	X32	Y32	Z32	X33	Y33	Z33	X34	Y34	Z34	X35	Y35	Z35	X36	Y36	Z36	X37	Y37	Z37	X38	Y38	Z38	X39	Y39	Z39	X40	Y40	Z40	X41	Y41	Z41	X42	Y42	Z42	X43	Y43	Z43	X44	Y44	Z44	X45	Y45	Z45	X46	Y46	Z46	X47	Y47	Z47	X48	Y48	Z48	
1501	7.5050	491.524386	1398.077549	-77.747611	487.450541	1412.178191	-421.787608	417.572016	1511.057064	-249.340589	461.920237	1332.083260	-256.957797	589.278976	1150.264924	16.481192	784.473621	927.367020	-49.023971	542.582262	1123.361665	-530.131515	791.094550	925.734901	-430.969049	-108.787505	1196.297068	-242.664856	105.655959	1236.901827	-450.455693	115.495925	1203.995985	-51.331834	137.788236	1167.289622	-408.161125	146.584396	1145.688544	-86.877865	-65.788002	1268.599466	-184.508266	-74.081282	1265.784744	-281.124965	47.852043	1041.017433	-36.089517	44.790150	1119.517126	-469.907582	130.668771	921.153087	-30.307401	197.896043	864.644151	-45.470363	226.489416	783.649927	-62.930654	225.895385	886.634276	-57.417664	284.827547	697.921061	-86.612392	270.910120	677.139244	-209.887757	237.311558	549.598545	-65.469542	238.201458	462.717857	-81.274149	196.948392	385.731330	-81.518336	264.410538	459.024794	-110.916881	158.557574	250.124559	-93.426024	96.817824	241.726982	-142.576180	373.029592	165.809514	-133.637671	299.116548	148.041088	-65.880005	190.062950	1071.244136	-478.898485	275.289076	1068.059124	-470.327480	286.084796	1100.921868	-455.952678	351.457105	1020.262782	-470.046555	478.466813	962.866725	-441.021302	485.668569	955.377223	-308.250781	187.043951	648.779919	-412.465486	116.285659	630.780789	-378.347190	276.840534	496.531131	-439.026416	402.533867	873.698891	-456.500514	365.506575	797.461210	-439.946292	293.807689	745.898774	-435.713191	389.992870	781.123358	-414.948992	370.189322	473.726302	-370.030925	-204.971539	955.569785	-261.853924	1.423527	82.516923	-461.098113	-15.194002	81.121839	-62.443364	
1502	7.5100	492.284281	1397.464746	-79.174540	486.432396	1412.545168	-422.334306	417.302806	1512.396870	-250.178556	461.830275	1333.413729	-257.972890	589.953450	1150.651935	15.854104	784.495866	927.444057	-49.012919	542.497371	1123.843960	-528.909136	791.117351	925.912628	-430.751481	-108.089293	1196.925746	-242.508078	105.708734	1238.772117	-450.162823	116.611713	1203.145915	-52.139231	137.445983	1169.279947	-407.768743	147.381574	1145.735662	-87.873140	-65.431869	1269.256416	-183.599464	-73.606255	1266.628366	-280.878560	47.871658	1041.451437	-35.619580	44.872866	1121.901515	-470.189097	130.127802	921.592818	-29.859894	196.871230	864.682874	-45.168528	224.806378	783.509923	-62.048320	225.009376	886.614415	-57.310561	282.394102	697.149392	-85.429002	267.857701	676.736868	-208.665763	233.022360	549.160266	-64.797326	232.291539	462.274552	-81.624157	190.146130	385.985003	-81.234384	258.726477	458.325548	-110.400998	149.663103	250.978437	-93.700412	87.947028	243.375522	-142.817931	363.076544	164.025481	-133.944690	288.977495	147.094757	-66.188809	190.469542	1074.884435	-479.431925	275.617683	1072.308749	-470.579393	286.177813	1105.187770	-455.872469	352.223964	1025.151781	-470.287658	479.996785	968.687002	-440.924541	487.040108	961.623619	-308.129141	194.840877	648.521957	-412.647811	124.446017	629.474950	-378.466296	287.063431	497.395046	-438.654369	405.625523	877.986861	-456.378685	370.233757	800.699754	-439.878185	299.566842	747.638011	-435.722112	394.970497	784.789846	-414.678213	380.725638	475.876853	-369.325146	-204.987048	955.570094	-261.875383	1.432388	82.579809	-461.085398	-15.117277	81.163412	-62.543541	
1503	7.5150	493.377680	1397.159852	-80.149939	485.411216	1412.751303	-422.647908	416.951199	1513.732050	-251.233850	461.694353	1334.458855	-258.954177	590.478773	1150.921357	15.114215	784.489374	927.464923	-49.004224	542.722897	1124.046060	-527.809177	791.179228	926.069044	-430.631450	-108.161823	1197.881030	-242.192643	105.691974	1240.464581	-449.835376	117.520998	1202.624704	-52.825196	137.141201	1171.265088	-407.618422	148.065769	1145.742224	-88.578019	-65.131212	1269.912762	-182.750657	-73.720456	1267.691357	-280.048934	47.934915	1041.801999	-35.143231	44.976022	1124.180700	-470.511695	129.858508	922.356759	-29.531467	196.110387	864.954045	-44.876422	223.846773	783.413548	-61.739770	224.359485	886.721414	-57.129593	280.390840	696.598896	-84.398581	266.936967	676.174993	-208.304728	229.142495	549.209539	-64.301494	227.045657	462.298340	-81.289420	183.679600	386.688612	-80.988959	253.491186	458.017933	-110.067091	140.767473	252.369073	-94.054577	78.724845	245.974189	-142.731209	353.167011	162.717826	-134.132596	278.850042	146.595175	-66.448660	190.711519	1078.300463	-479.850323	275.869993	1076.257697	-470.831235	286.080997	1109.167434	-455.924331	352.778220	1029.626801	-470.485381	481.234667	973.887740	-440.730673	488.147538	967.455732	-307.974084	202.809576	647.560696	-412.829184	132.726716	627.533728	-378.681137	297.273994	497.519024	-438.367681	408.742627	881.458050	-456.048990	374.918227	803.459704	-439.833398	305.376487	748.893818	-435.809382	399.837656	788.063699	-414.578697	391.175276	477.645169	-369.047186	-205.000876	955.564476	-261.861007	1.424461	82.589008	-461.094539	-15.132446	81.182605	-62.543858	
1504	7.5200	494.388936	1396.770608	-81.233536	484.519337	1412.839345	-422.856317	416.556390	1515.000770	-252.199754	461.378382	1335.648321	-259.895472	590.896628	1151.273683	14.356348	784.467989	927.510707	-49.032304	543.020731	1124.809093	-526.997525	791.259077	926.178703	-430.583427	-107.896495	1198.369696	-241.876125	105.708451	1242.273807	-449.792849	118.292133	1202.328592	-53.364872	136.508641	1173.256206	-407.186323	148.639000	1145.703614	-89.044084	-64.992676	1270.549420	-181.817251	-73.851314	1269.017705	-279.149995	47.944542	1042.329527	-34.718848	44.886364	1126.048257	-470.710437	129.690478	923.162030	-28.978773	195.590313	865.458214	-44.556497	223.001102	783.787532	-61.094986	223.915526	887.019126	-56.899031	279.395755	696.524116	-83.306831	265.903933	676.193461	-207.411934	225.861125	549.386780	-63.786347	222.154063	462.661383	-81.006541	177.419037	387.852855	-81.002125	248.526167	457.978764	-109.866594	131.994220	254.540569	-94.451495	70.211421	248.988846	-143.270249	343.335398	162.132304	-134.491538	268.721297	146.960309	-66.733232	190.493672	1080.728273	-479.657980	275.908433	1079.869276	-471.068048	285.870018	1112.802648	-455.990842	353.195091	1033.779008	-470.563118	482.288999	978.486924	-440.544658	489.040737	972.742242	-307.882390	210.920604	646.135898	-413.164182	141.189905	625.119219	-378.984648	307.405454	496.962220	-438.080365	411.715810	884.487548	-455.810161	379.576903	805.733964	-439.917004	311.125157	749.853129	-435.991944	404.801159	790.827757	-414.627600	401.522184	478.468761	-368.688327	-205.014222	955.572662	-261.850847	1.427701	82.607365	-461.088662	-15.142481	81.171008	-62.523364	
1505	7.5250	495.266572	1396.442618	-82.428951	483.673209	1412.835920	-422.847518	416.009799	1515.978026	-252.907539	461.147170	1336.396231	-260.649506	591.192682	1151.584279	13.539728	784.409457	927.577633	-49.113093	543.435640	1125.512467	-526.183767	791.345691	926.199790	-430.557243	-107.878339	1199.135504	-241.702041	105.619512	1244.138924	-449.739375	118.824181	1202.202175	-53.738043	135.850620	1175.252284	-406.975670	149.041101	1145.624803	-89.236207	-64.902407	1271.095001	-181.207844	-73.357677	1269.720020	-279.228456	47.856126	1042.953970	-34.339298	44.731861	1127.659641	-470.930439	129.647519	923.637758	-28.717833	195.399489	866.117083	-44.264363	222.683095	784.234657	-60.600289	223.681576	887.558430	-56.649165	278.745716	696.718663	-82.217377	265.535567	676.586178	-206.390466	222.991337	550.113567	-63.252137	217.644347	463.387026	-80.745788	171.482982	389.501858	-81.049267	243.920419	458.365987	-109.613832	123.393671	257.156248	-94.896962	61.862702	252.444857	-143.742726	333.559865	162.083432	-134.772896	258.727765	147.925311	-67.022539	190.453787	1083.096402	-479.874921	275.797080	1083.117237	-471.245037	285.504583	1116.099370	-456.045297	353.394821	1037.499311	-470.581177	483.150106	982.588414	-440.327304	489.717037	977.468561	-307.707450	219.171791	643.949975	-413.541836	149.934706	622.257756	-379.336781	317.496691	495.787647	-437.818815	414.643345	886.983941	-455.671402	384.203701	807.553936	-439.982746	316.996159	750.024650	-436.184181	409.781905	793.125763	-414.774891	411.727973	478.492401	-368.407725	-205.037606	955.575224	-261.830695	1.399819	82.617082	-461.092356	-15.142473	81.183783	-62.560398	
1506	7.5300	495.874785	1396.038121	-83.718790	482.840376	1412.684849	-422.605413	415.510818	1517.002743	-253.786546	461.479327	1337.922318	-260.966456	591.400068	1151.826672	12.813745	783.565636	927.403721	-49.864742	544.037689	1126.183651	-525.273511	791.467117	926.163345	-430.550091	-107.946981	1199.723591	-241.520441	105.506980	1245.892951	-449.822607	119.171990	1202.259782	-53.873930	135.255682	1177.105887	-406.946560	149.296001	1145.599581	-89.250956	-64.981828	1271.713488	-180.812011	-73.101258	1270.441101	-279.166074	47.664765	1043.575649	-34.015758	44.398002	1129.002157	-471.064729	129.626447	924.169181	-28.739089	195.442913	866.894716	-43.897860	222.779040	784.950302	-60.006785	223.713336	888.295900	-56.388279	278.803754	697.256993	-81.178235	265.856840	677.126707	-205.414301	220.644831	550.990041	-62.615692	213.536270	464.540807	-80.408157	165.817216	391.607280	-81.147745	239.571815	459.113739	-109.493757	114.987032	260.378043	-95.414315	53.498704	256.602447	-144.174682	324.019120	162.509248	-135.053160	248.950482	149.516211	-67.358261	190.132579	1085.417104	-480.179209	275.337275	1086.000836	-471.471294	284.944486	1119.038312	-456.174252	353.371099	1040.822902	-470.489082	483.754585	986.146747	-440.066873	490.196291	981.274180	-307.403065	227.549022	641.379639	-414.075812	158.673438	618.935057	-379.484592	327.453850	493.843547	-437.560797	417.460041	888.963774	-455.516384	388.798827	808.812832	-440.111016	322.951917	749.788938	-436.379132	414.700033	794.959581	-414.935545	421.898703	477.628698	-367.840707	-205.104016	955.571808	-261.801427	1.404064	82.631183	-461.098041	-15.224677	81.185355	-62.448396	
